<svg width="152" height="19" viewBox="0 0 152 19" fill="none" xmlns="http://www.w3.org/2000/svg">
<path d="M4.50781 18L0.03125 1.08984H3.71094L6.34766 13.1719H6.53516L9.61719 1.08984H12.6055L15.7461 13.1719H15.9336L18.5469 1.08984H22.2031L17.7148 18H14.3984L11.1992 6.60938H11.0117L7.84766 18H4.50781ZM26.9844 18.1992C24.5234 18.1992 22.7773 16.6758 22.7773 14.332V14.3086C22.7773 11.9883 24.5703 10.6289 27.7812 10.4414L30.8984 10.2539V9.1875C30.8984 8.07422 30.1367 7.44141 28.7305 7.44141C27.5 7.44141 26.7148 7.875 26.4453 8.63672L26.4219 8.68359H23.2578L23.2695 8.57812C23.5391 6.31641 25.6719 4.81641 28.918 4.81641C32.3398 4.81641 34.2734 6.43359 34.2734 9.1875V18H30.8984V16.2891H30.6875C30.0312 17.4844 28.6719 18.1992 26.9844 18.1992ZM26.1172 14.1211C26.1172 15.1055 26.9492 15.7031 28.1328 15.7031C29.7148 15.7031 30.8984 14.6602 30.8984 13.3008V12.3516L28.2969 12.5156C26.832 12.6094 26.1172 13.1602 26.1172 14.0977V14.1211ZM37.625 18V5.09766H41.0469V7.08984H41.2578C41.8438 5.69531 43.1211 4.81641 44.9609 4.81641C47.832 4.81641 49.3789 6.57422 49.3789 9.65625V18H45.957V10.4297C45.957 8.61328 45.207 7.65234 43.5898 7.65234C42.0078 7.65234 41.0469 8.78906 41.0469 10.5352V18H37.625ZM57.3008 18.1992C54.0781 18.1992 52.0625 15.6797 52.0625 11.5547V11.5312C52.0625 7.38281 54.0312 4.88672 57.3008 4.88672C59.0703 4.88672 60.5117 5.75391 61.1562 7.16016H61.3672V0.164062H64.7891V18H61.3672V15.9961H61.1562C60.4883 17.3906 59.1172 18.1992 57.3008 18.1992ZM58.4609 15.3633C60.2773 15.3633 61.4023 13.9336 61.4023 11.5664V11.543C61.4023 9.17578 60.2656 7.72266 58.4609 7.72266C56.6562 7.72266 55.543 9.17578 55.543 11.5312V11.5547C55.543 13.9336 56.6562 15.3633 58.4609 15.3633ZM74 18.2695C70.0742 18.2695 67.6953 15.7031 67.6953 11.5664V11.5547C67.6953 7.45312 70.0977 4.81641 73.8594 4.81641C77.6211 4.81641 79.9648 7.39453 79.9648 11.2969V12.3633H71.082C71.1172 14.4844 72.2539 15.7148 74.0703 15.7148C75.5703 15.7148 76.4023 14.918 76.6367 14.4258L76.6719 14.3555H79.8594L79.8359 14.4727C79.4375 16.0898 77.7734 18.2695 74 18.2695ZM73.918 7.38281C72.4297 7.38281 71.3281 8.39062 71.1172 10.2188H76.6836C76.4727 8.34375 75.4062 7.38281 73.918 7.38281ZM82.7656 18V5.09766H86.1875V7.10156H86.3984C86.8086 5.70703 87.9805 4.88672 89.6562 4.88672C90.1133 4.88672 90.5938 4.95703 90.9336 5.05078V8.03906C90.418 7.92188 89.8906 7.83984 89.3633 7.83984C87.418 7.83984 86.1875 8.95312 86.1875 10.7812V18H82.7656Z" fill="#292C27"/>
<path d="M93.5586 18V1.08984H97.0977V15.082H104.621V18H93.5586ZM111.008 18.1992C108.547 18.1992 106.801 16.6758 106.801 14.332V14.3086C106.801 11.9883 108.594 10.6289 111.805 10.4414L114.922 10.2539V9.1875C114.922 8.07422 114.16 7.44141 112.754 7.44141C111.523 7.44141 110.738 7.875 110.469 8.63672L110.445 8.68359H107.281L107.293 8.57812C107.562 6.31641 109.695 4.81641 112.941 4.81641C116.363 4.81641 118.297 6.43359 118.297 9.1875V18H114.922V16.2891H114.711C114.055 17.4844 112.695 18.1992 111.008 18.1992ZM110.141 14.1211C110.141 15.1055 110.973 15.7031 112.156 15.7031C113.738 15.7031 114.922 14.6602 114.922 13.3008V12.3516L112.32 12.5156C110.855 12.6094 110.141 13.1602 110.141 14.0977V14.1211ZM121.648 18V5.09766H125.07V7.10156H125.281C125.691 5.70703 126.863 4.88672 128.539 4.88672C128.996 4.88672 129.477 4.95703 129.816 5.05078V8.03906C129.301 7.92188 128.773 7.83984 128.246 7.83984C126.301 7.83984 125.07 8.95312 125.07 10.7812V18H121.648ZM132.219 18V0.164062H135.641V10.1953H135.852L140.164 5.09766H144.043L139.086 10.5703L144.383 18H140.34L136.578 12.6797L135.641 13.6758V18H132.219ZM149 18.293C147.805 18.293 146.938 17.4141 146.938 16.2539C146.938 15.0938 147.805 14.2266 149 14.2266C150.207 14.2266 151.062 15.0938 151.062 16.2539C151.062 17.4141 150.207 18.293 149 18.293Z" fill="#30AF5B"/>
</svg>
